<svg width="48" height="33" viewBox="0 0 48 33" fill="none" xmlns="http://www.w3.org/2000/svg">
<rect x="8" y="30.1526" width="27" height="32" transform="rotate(-90 8 30.1526)" fill="#CDF3BB"/>
<path d="M40 3.65259C41.9614 3.65259 43.8256 4.99724 45.2267 7.36155C46.6213 9.71491 47.5 12.9986 47.5 16.6526C47.5 20.3066 46.6213 23.5903 45.2267 25.9436C43.8256 28.3079 41.9614 29.6526 40 29.6526C38.0386 29.6526 36.1744 28.3079 34.7733 25.9436C33.3787 23.5903 32.5 20.3066 32.5 16.6526C32.5 12.9986 33.3787 9.71491 34.7733 7.36155C36.1744 4.99724 38.0386 3.65259 40 3.65259Z" fill="url(#paint0_angular_37_19)" stroke="black"/>
<path d="M8 3.65259C9.96142 3.65259 11.8256 4.99724 13.2267 7.36155C14.6213 9.71491 15.5 12.9986 15.5 16.6526C15.5 20.3066 14.6213 23.5903 13.2267 25.9436C11.8256 28.3079 9.96142 29.6526 8 29.6526C6.03858 29.6526 4.17436 28.3079 2.77329 25.9436C1.37871 23.5903 0.5 20.3066 0.499999 16.6526C0.499999 12.9986 1.37871 9.71491 2.77329 7.36155C4.17436 4.99724 6.03858 3.65259 8 3.65259Z" fill="#CDF3BB" stroke="black"/>
<path d="M38.0451 18.5349L37.908 13.3377C37.8869 12.5376 37.6611 11.9228 37.2306 11.4934L34.3524 13.2467L32.3341 14.4762L30.3158 15.7057L28.1774 17.0084L18.8346 11.5409C18.4268 11.9726 18.2335 12.5884 18.2546 13.3885L18.3916 18.5857C18.4373 20.3181 19.4428 21.1818 21.4082 21.1767L35.1656 21.1412C37.1309 21.1361 38.0908 20.2673 38.0451 18.5349Z" fill="#F7F8FA"/>
<path d="M24.5734 10.7733L21.134 10.7822C20.0763 10.785 19.3098 11.0379 18.8346 11.5409L28.1774 17.0084L30.3158 15.7057L32.3341 14.4762L34.3524 13.2467L37.2306 11.4934C36.7289 10.9928 35.9492 10.7439 34.8915 10.7467L31.4521 10.7556L28.0128 10.7644L24.5734 10.7733Z" fill="#F7F8FA"/>
<path d="M21.134 10.7822C23.0994 10.7771 32.9261 10.7517 34.8915 10.7467M21.134 10.7822C20.0763 10.785 19.3098 11.0379 18.8346 11.5409M21.134 10.7822L24.5734 10.7733L28.0128 10.7644L31.4521 10.7556L34.8915 10.7467M34.8915 10.7467C35.9492 10.7439 36.7289 10.9928 37.2306 11.4934M37.908 13.3377C37.9537 15.0701 37.9994 16.8025 38.0451 18.5349M37.908 13.3377C37.8869 12.5376 37.6611 11.9228 37.2306 11.4934M37.908 13.3377L38.0451 18.5349M38.0451 18.5349C38.0908 20.2673 37.1309 21.1361 35.1656 21.1412L21.4082 21.1767C19.4428 21.1818 18.4373 20.3181 18.3916 18.5857M18.3916 18.5857C18.346 16.8533 18.3002 15.1209 18.2546 13.3885M18.3916 18.5857L18.2546 13.3885M18.2546 13.3885C18.2335 12.5884 18.4268 11.9726 18.8346 11.5409M18.8346 11.5409L28.1774 17.0084L30.3158 15.7057L32.3341 14.4762L34.3524 13.2467L37.2306 11.4934M16.4764 18.5782L10.7604 18.5556M12.472 16.4164L6.39872 16.3924M15.9557 13.8782L9.88247 13.8542" stroke="black" stroke-linecap="round"/>
<path d="M8 3.65259C9.96142 3.65259 11.8256 4.99724 13.2267 7.36155C14.6213 9.71491 15.5 12.9986 15.5 16.6526C15.5 20.3066 14.6213 23.5903 13.2267 25.9436C11.8256 28.3079 9.96142 29.6526 8 29.6526C6.03858 29.6526 4.17436 28.3079 2.77329 25.9436C1.37871 23.5903 0.5 20.3066 0.499999 16.6526C0.499999 12.9986 1.37871 9.71491 2.77329 7.36155C4.17436 4.99724 6.03858 3.65259 8 3.65259Z" stroke="black"/>
<path d="M40 29.6526L8 29.6526" stroke="black" stroke-linecap="round"/>
<path d="M40 3.6499L8 3.6499" stroke="black" stroke-linecap="round"/>
<defs>
<radialGradient id="paint0_angular_37_19" cx="0" cy="0" r="1" gradientUnits="userSpaceOnUse" gradientTransform="translate(40 16.6526) scale(8 13.5)">
<stop stop-color="#1E892F"/>
<stop offset="0.15" stop-color="#1E892F"/>
<stop offset="0.1501" stop-color="#00FF29"/>
<stop offset="0.33" stop-color="#00FF29"/>
<stop offset="0.3301" stop-color="#1E892F"/>
<stop offset="0.51" stop-color="#1E892F"/>
<stop offset="0.5101" stop-color="#00FF29"/>
<stop offset="0.6749" stop-color="#00FF29"/>
<stop offset="0.675" stop-color="#1E892F"/>
<stop offset="0.86" stop-color="#1E892F"/>
<stop offset="0.8601" stop-color="#00FF29"/>
<stop offset="1" stop-color="#00FF29"/>
<stop offset="1" stop-color="#1E892F"/>
</radialGradient>
</defs>
</svg>
