<svg width="32" height="48" viewBox="0 0 32 48" fill="none" xmlns="http://www.w3.org/2000/svg">
<rect x="2.34738" y="8" width="27" height="32" fill="#E2EDDC"/>
<path d="M28.8474 40C28.8474 41.9614 27.5027 43.8256 25.1384 45.2267C22.7851 46.6213 19.5013 47.5 15.8474 47.5C12.1934 47.5 8.9097 46.6213 6.55634 45.2267C4.19204 43.8256 2.84738 41.9614 2.84738 40C2.84738 38.0386 4.19204 36.1744 6.55634 34.7733C8.9097 33.3787 12.1934 32.5 15.8474 32.5C19.5013 32.5 22.7851 33.3787 25.1384 34.7733C27.5027 36.1744 28.8474 38.0386 28.8474 40Z" fill="#68E02D" stroke="black"/>
<path d="M28.8474 8C28.8474 9.96142 27.5027 11.8256 25.1384 13.2267C22.7851 14.6213 19.5013 15.5 15.8474 15.5C12.1934 15.5 8.9097 14.6213 6.55634 13.2267C4.19204 11.8256 2.84738 9.96142 2.84738 8C2.84738 6.03858 4.19204 4.17436 6.55634 2.77329C8.9097 1.37871 12.1934 0.5 15.8474 0.5C19.5013 0.5 22.7851 1.37871 25.1384 2.77329C27.5027 4.17436 28.8474 6.03858 28.8474 8Z" fill="#E2EDDC" stroke="black"/>
<path d="M16.3673 38.2123L21.374 36.811C22.1447 36.5953 22.6857 36.2263 22.9972 35.704L20.5944 33.3407L18.9095 31.6835L17.2246 30.0263L15.4395 28.2705L18.4614 17.8758C17.9433 17.5857 17.2989 17.5485 16.5282 17.7642L11.5215 19.1655C9.85266 19.6326 9.26051 20.8185 9.74508 22.7232L13.1371 36.056C13.6217 37.9606 14.6984 38.6794 16.3673 38.2123Z" fill="#F7F8FA"/>
<path d="M20.6064 23.2537L19.7584 19.9206C19.4976 18.8955 19.0652 18.2139 18.4614 17.8758L15.4395 28.2705L17.2246 30.0263L18.9095 31.6835L20.5944 33.3407L22.9972 35.704C23.3601 35.0953 23.4112 34.2784 23.1504 33.2533L22.3024 29.9201L21.4544 26.5869L20.6064 23.2537Z" fill="#F7F8FA"/>
<path d="M19.7584 19.9206C20.243 21.8252 22.6658 31.3486 23.1504 33.2533M19.7584 19.9206C19.4976 18.8955 19.0652 18.2139 18.4614 17.8758M19.7584 19.9206L20.6064 23.2537L21.4544 26.5869L22.3024 29.9201L23.1504 33.2533M23.1504 33.2533C23.4112 34.2784 23.3601 35.0953 22.9972 35.704M21.374 36.811C19.7051 37.2781 18.0362 37.7452 16.3673 38.2123M21.374 36.811C22.1447 36.5953 22.6857 36.2263 22.9972 35.704M21.374 36.811L16.3673 38.2123M16.3673 38.2123C14.6984 38.6794 13.6217 37.9606 13.1371 36.056L9.74508 22.7232C9.26051 20.8185 9.85266 19.6326 11.5215 19.1655M11.5215 19.1655C13.1904 18.6985 14.8593 18.2313 16.5282 17.7642M11.5215 19.1655L16.5282 17.7642M16.5282 17.7642C17.2989 17.5485 17.9433 17.5857 18.4614 17.8758M18.4614 17.8758L15.4395 28.2705L17.2246 30.0263L18.9095 31.6835L20.5944 33.3407L22.9972 35.704M11.0614 17.3064L9.68827 11.7577M12.1806 12.8955L10.7216 7.00001M15.4922 15.6544L14.0333 9.75895" stroke="black" stroke-linecap="round"/>
<path d="M28.8474 8C28.8474 9.96142 27.5027 11.8256 25.1384 13.2267C22.7851 14.6213 19.5013 15.5 15.8474 15.5C12.1934 15.5 8.9097 14.6213 6.55634 13.2267C4.19204 11.8256 2.84738 9.96142 2.84738 8C2.84738 6.03858 4.19204 4.17436 6.55634 2.77329C8.9097 1.37871 12.1934 0.5 15.8474 0.5C19.5013 0.5 22.7851 1.37871 25.1384 2.77329C27.5027 4.17436 28.8474 6.03858 28.8474 8Z" stroke="black"/>
<path d="M2.84738 40L2.84738 8" stroke="black" stroke-linecap="round"/>
<path d="M28.85 40L28.85 8" stroke="black" stroke-linecap="round"/>
</svg>
